<?xml version="1.0" encoding="iso-8859-1"?>
<!-- Generator: Adobe Illustrator 16.0.0, SVG Export Plug-In . SVG Version: 6.00 Build 0)  -->
<!DOCTYPE svg PUBLIC "-//W3C//DTD SVG 1.1//EN" "http://www.w3.org/Graphics/SVG/1.1/DTD/svg11.dtd">
<svg version="1.1" id="Capa_1" xmlns="http://www.w3.org/2000/svg" xmlns:xlink="http://www.w3.org/1999/xlink" x="0px" y="0px"
	 width="533.333px" height="533.333px" viewBox="0 0 533.333 533.333" style="enable-background:new 0 0 533.333 533.333;"
	 xml:space="preserve">
<g>
	<path d="M533.333,266.667C533.333,119.391,413.942,0,266.667,0C119.391,0,0,119.391,0,266.667
		c0,147.275,119.391,266.666,266.667,266.666C413.942,533.333,533.333,413.942,533.333,266.667z M50,266.667
		C50,147.005,147.005,50,266.667,50c119.661,0,216.667,97.005,216.667,216.667c0,119.661-97.006,216.666-216.667,216.666
		C147.005,483.333,50,386.328,50,266.667z M290.236,423.57L423.57,290.236c13.018-13.017,13.018-34.122,0-47.139
		c-13.018-13.018-34.123-13.018-47.141,0L300,319.526V133.333C300,114.924,285.076,100,266.667,100s-33.333,14.924-33.333,33.333
		v186.193l-76.429-76.431c-13.018-13.018-34.124-13.018-47.142,0c-6.508,6.51-9.762,15.041-9.762,23.571s3.254,17.062,9.762,23.569
		L243.096,423.57C256.114,436.588,277.219,436.588,290.236,423.57z"/>
</g>
<g>
</g>
<g>
</g>
<g>
</g>
<g>
</g>
<g>
</g>
<g>
</g>
<g>
</g>
<g>
</g>
<g>
</g>
<g>
</g>
<g>
</g>
<g>
</g>
<g>
</g>
<g>
</g>
<g>
</g>
</svg>
